<svg version="1.1" xmlns="http://www.w3.org/2000/svg" xmlns:xlink="http://www.w3.org/1999/xlink" width="800px" height="800px" viewBox="0,0,256,256"><g fill="none" fill-rule="none" stroke="none" stroke-width="none" stroke-linecap="none" stroke-linejoin="none" stroke-miterlimit="10" stroke-dasharray="" stroke-dashoffset="0" font-family="none" font-weight="none" font-size="none" text-anchor="none" style="mix-blend-mode: normal"><g transform="translate(0,5.12) scale(10.24,10.24)"><path d="M15.5,5h-6c-2.20914,0 -4,1.79086 -4,4v6c0,2.2091 1.79086,4 4,4h6c2.2091,0 4,-1.7909 4,-4v-6c0,-2.20914 -1.7909,-4 -4,-4z" fill="none" fill-rule="evenodd" stroke="#ffffff" stroke-width="1.5" stroke-linecap="round" stroke-linejoin="round"></path><path d="M12.5,15c-1.6569,0 -3,-1.3431 -3,-3c0,-1.6569 1.3431,-3 3,-3c1.6569,0 3,1.3431 3,3c0,0.7956 -0.3161,1.5587 -0.8787,2.1213c-0.5626,0.5626 -1.3257,0.8787 -2.1213,0.8787z" fill="none" fill-rule="evenodd" stroke="#ffffff" stroke-width="1.5" stroke-linecap="round" stroke-linejoin="round"></path><rect x="-9" y="15.5" transform="rotate(-90)" width="2" height="2" rx="1" ry="0" fill="#ffffff" fill-rule="nonzero" stroke="none" stroke-width="1" stroke-linecap="butt" stroke-linejoin="miter"></rect><rect x="-8.5" y="16" transform="rotate(-90)" width="1" height="1" rx="0.5" ry="0" fill="none" fill-rule="nonzero" stroke="#ffffff" stroke-width="1" stroke-linecap="round" stroke-linejoin="miter"></rect></g></g></svg>